<svg xmlns="http://www.w3.org/2000/svg" viewBox="0 0 1200 300" width="1200" height="300" font-family="system-ui, -apple-system, 'Segoe UI', 'Microsoft YaHei', sans-serif">
  <defs>
    <linearGradient id="b" x1="0" y1="0" x2="1" y2="1">
      <stop offset="0%" stop-color="#1b1c33"/>
      <stop offset="55%" stop-color="#12121f"/>
      <stop offset="100%" stop-color="#0b0c12"/>
    </linearGradient>
    <linearGradient id="p" x1="0" y1="0" x2="1" y2="1">
      <stop offset="0%" stop-color="#8b7bf7"/>
      <stop offset="100%" stop-color="#5b4bd6"/>
    </linearGradient>
  </defs>

  <rect width="1200" height="300" fill="url(#b)"/>
  <circle cx="1075" cy="60" r="190" fill="#6c5ce7" opacity="0.10"/>
  <circle cx="985" cy="270" r="140" fill="#8b7bf7" opacity="0.07"/>

  <!-- 遥控器图标 -->
  <g transform="translate(88,74)">
    <rect x="0" y="0" width="118" height="152" rx="26" fill="url(#p)"/>
    <circle cx="59" cy="46" r="19" fill="#ffffff"/>
    <rect x="34" y="86" width="50" height="14" rx="7" fill="#ffffff" opacity="0.95"/>
    <rect x="34" y="112" width="24" height="10" rx="5" fill="#ffffff" opacity="0.55"/>
    <rect x="64" y="112" width="20" height="10" rx="5" fill="#ffffff" opacity="0.55"/>
  </g>

  <text x="248" y="126" font-size="52" font-weight="800" fill="#f2f3fa">局域网智能遥控器</text>
  <text x="250" y="170" font-size="23" fill="#a9aec2">用手机浏览器遥控 Windows 电脑 · 免安装 App</text>

  <g font-size="15" fill="#cfd2e2">
    <rect x="250" y="196" width="122" height="34" rx="17" fill="#1c1e30" stroke="#33375a"/>
    <text x="311" y="218" text-anchor="middle">播放控制</text>
    <rect x="384" y="196" width="104" height="34" rx="17" fill="#1c1e30" stroke="#33375a"/>
    <text x="436" y="218" text-anchor="middle">触摸板</text>
    <rect x="500" y="196" width="104" height="34" rx="17" fill="#1c1e30" stroke="#33375a"/>
    <text x="552" y="218" text-anchor="middle">宏录制</text>
    <rect x="616" y="196" width="150" height="34" rx="17" fill="#1c1e30" stroke="#33375a"/>
    <text x="691" y="218" text-anchor="middle">扩展精确控制</text>
    <rect x="778" y="196" width="120" height="34" rx="17" fill="#1c1e30" stroke="#33375a"/>
    <text x="838" y="218" text-anchor="middle">PWA</text>
  </g>

  <text x="250" y="262" font-size="14" fill="#6f7488">.NET 9 + Kestrel · Chrome / Edge MV3 扩展 · 原生 JS PWA · 纯局域网运行</text>
</svg>
